<svg xmlns="http://www.w3.org/2000/svg" xmlns:xlink="http://www.w3.org/1999/xlink" version="1.0" x="0px" y="0px" viewBox="0 0 32 40" enable-background="new 0 0 32 32" xml:space="preserve"><path d="M32,16c0-8.835-7.164-16-16-16S0,7.164,0,16s7.164,16,16,16S32,24.835,32,16z M12.535,23.456  c-0.746-0.746-0.746-1.953,0-2.699l4.801-4.746l-4.801-4.746c-0.746-0.746-0.746-1.953,0-2.699c0.754-0.742,1.973-0.746,2.727,0  l6.156,6.098c0.746,0.742,0.746,1.953,0,2.698l-6.156,6.094C14.508,24.202,13.289,24.202,12.535,23.456z"/><text x="0" y="47" fill="#000000" font-size="5px" font-weight="bold" font-family="'Helvetica Neue', Helvetica, Arial-Unicode, Arial, Sans-serif">Created by Pixel Bazaar</text><text x="0" y="52" fill="#000000" font-size="5px" font-weight="bold" font-family="'Helvetica Neue', Helvetica, Arial-Unicode, Arial, Sans-serif">from the Noun Project</text></svg>