<svg xmlns="http://www.w3.org/2000/svg" 
  xmlns:xlink="http://www.w3.org/1999/xlink" xml:space="preserve" version="1.1" style="shape-rendering:geometricPrecision;text-rendering:geometricPrecision;image-rendering:optimizeQuality;" viewBox="0 0 1.972 1.972" x="0px" y="0px" fill-rule="evenodd" clip-rule="evenodd">
  <g fill="currentColor">
    <path class="fil0" d="M0 1.405c0,-0.05 0.04,-0.09 0.09,-0.09 0.049,0 0.089,0.04 0.089,0.09l0 0.261 0.397 -0.396c0.035,-0.035 0.091,-0.035 0.126,0 0.035,0.035 0.035,0.092 0,0.127l-0.396 0.396 0.262 0c0.049,0 0.089,0.04 0.089,0.09 0,0.049 -0.04,0.089 -0.089,0.089l-0.478 0c-0.05,0 -0.09,-0.04 -0.09,-0.089l0 -0.478zm1.793 -1.099l-0.396 0.396c-0.035,0.035 -0.092,0.035 -0.127,0 -0.035,-0.035 -0.035,-0.091 0,-0.126l0.396 -0.397 -0.261 0c-0.05,0 -0.09,-0.04 -0.09,-0.089 0,-0.05 0.04,-0.09 0.09,-0.09l0.478 0c0.049,0 0.089,0.04 0.089,0.09l0 0.478c0,0.049 -0.04,0.089 -0.089,0.089 -0.05,0 -0.09,-0.04 -0.09,-0.089l0 -0.262zm-1.487 -0.127l0.396 0.397c0.035,0.035 0.035,0.091 0,0.126 -0.035,0.035 -0.091,0.035 -0.126,0l-0.397 -0.396 0 0.262c0,0.049 -0.04,0.089 -0.089,0.089 -0.05,0 -0.09,-0.04 -0.09,-0.089l0 -0.478c0,-0.017 0.004,-0.032 0.012,-0.046l0 0 0.001 -0.002 0.001 0 0 -0.001 0.001 -0.001 0 0 0.001 -0.002 0.001 0 0 -0.001 0 0c0.006,-0.008 0.012,-0.014 0.02,-0.02l0 0 0.001 0 0 -0.001 0.002 -0.001 0 0 0.001 -0.001 0.001 0 0 -0.001 0.002 -0.001 0 0c0.014,-0.007 0.029,-0.012 0.046,-0.012l0.478 0c0.049,0 0.089,0.04 0.089,0.09 0,0.049 -0.04,0.089 -0.089,0.089l-0.262 0zm1.36 1.614l-0.396 -0.396c-0.035,-0.035 -0.035,-0.092 0,-0.127 0.035,-0.035 0.092,-0.035 0.127,0l0.396 0.396 0 -0.261c0,-0.05 0.04,-0.09 0.09,-0.09 0.049,0 0.089,0.04 0.089,0.09l0 0.478c0,0.049 -0.04,0.089 -0.089,0.089l-0.478 0c-0.05,0 -0.09,-0.04 -0.09,-0.089 0,-0.05 0.04,-0.09 0.09,-0.09l0.261 0z"/>
  </g>
</svg>