<svg xmlns="http://www.w3.org/2000/svg" 
    xmlns:xlink="http://www.w3.org/1999/xlink" version="1.1" x="0px" y="0px" viewBox="0 0 512 640" enable-background="new 0 0 512 512" xml:space="preserve">
    <g stroke="currentColor">
        <path d="M495.316,216.736c-0.832-5.11-4.729-9.18-9.802-10.229l-53.727-11.127l-8.624-20.818l30.118-45.848   c2.842-4.328,2.723-9.959-0.302-14.162c-15.414-21.434-34.101-40.118-55.534-55.535c-4.202-3.021-9.833-3.143-14.161-0.301   l-45.848,30.117L316.62,80.21l-11.125-53.724c-1.049-5.072-5.118-8.974-10.229-9.806c-12.964-2.11-26.174-3.182-39.264-3.182   c-13.092,0-26.301,1.07-39.264,3.182c-5.111,0.832-9.18,4.73-10.23,9.803L195.381,80.21l-20.818,8.623l-45.846-30.115   c-4.327-2.843-9.958-2.724-14.162,0.3C93.12,74.434,74.436,93.119,59.018,114.553c-3.022,4.203-3.142,9.835-0.299,14.162   l30.115,45.848l-8.623,20.818l-53.727,11.125c-5.072,1.051-8.971,5.119-9.803,10.231C14.57,229.699,13.5,242.91,13.5,256   c0,13.091,1.07,26.3,3.182,39.262c0.832,5.111,4.73,9.182,9.802,10.23l53.728,11.128l8.623,20.817L58.72,383.284   c-2.843,4.327-2.724,9.959,0.3,14.162c15.416,21.434,34.101,40.117,55.536,55.535c4.202,3.023,9.835,3.145,14.162,0.301   l45.846-30.115l20.819,8.622l11.126,53.727c1.051,5.071,5.119,8.971,10.23,9.803c12.961,2.111,26.172,3.183,39.264,3.183   c13.091,0,26.3-1.07,39.26-3.183c5.111-0.832,9.182-4.73,10.23-9.803l11.128-53.727l20.818-8.624l45.847,30.117   c4.328,2.844,9.961,2.724,14.162-0.3c21.437-15.419,40.122-34.104,55.536-55.536c3.021-4.203,3.142-9.834,0.3-14.161   l-30.115-45.848l8.622-20.818l53.727-11.127c5.069-1.051,8.969-5.118,9.802-10.229c2.112-12.954,3.183-26.165,3.183-39.263   S497.43,229.693,495.316,216.736z M256,368.975c-62.293,0-112.974-50.681-112.974-112.975S193.707,143.026,256,143.026   c62.294,0,112.975,50.68,112.975,112.974S318.294,368.975,256,368.975z"/>
    </g>
</svg>