<svg xmlns="http://www.w3.org/2000/svg" 
    xmlns:xlink="http://www.w3.org/1999/xlink" version="1.1" x="0px" y="0px" viewBox="10 10 87 87" style="enable-background:new 0 0 100 100;" xml:space="preserve">
    <g stoke="currentColor">
        <path d="M50,86c19.9,0,36-16.1,36-36S69.9,14,50,14c-19.9,0-36,16.1-36,36S30.1,86,50,86z M50,20c16.5,0,30,13.5,30,30   S66.5,80,50,80S20,66.5,20,50S33.5,20,50,20z"/>
        <path d="M40,63h20c1.7,0,3-1.3,3-3V40c0-1.7-1.3-3-3-3H40c-1.7,0-3,1.3-3,3v20C37,61.7,38.3,63,40,63z M43,43h14v14H43V43z"/>
    </g>
</svg>