<svg xmlns="http://www.w3.org/2000/svg" 
    xmlns:xlink="http://www.w3.org/1999/xlink" viewBox="0 0 100 100" version="1.1" x="0px" y="0px">
    <g stroke="none" stroke-width="1" fill="none" fill-rule="evenodd">
        <g fill="#000000">
            <path d="M54.5685425,44.5685425 L54.5685425,14.5729008 C54.5685425,11.8127631 52.3299662,9.56854249 49.5685425,9.56854249 C46.8127377,9.56854249 44.5685425,11.80907 44.5685425,14.5729008 L44.5685425,44.5685425 L14.5729008,44.5685425 C11.8127631,44.5685425 9.56854249,46.8071187 9.56854249,49.5685425 C9.56854249,52.3243473 11.80907,54.5685425 14.5729008,54.5685425 L44.5685425,54.5685425 L44.5685425,84.5641842 C44.5685425,87.3243219 46.8071187,89.5685425 49.5685425,89.5685425 C52.3243473,89.5685425 54.5685425,87.328015 54.5685425,84.5641842 L54.5685425,54.5685425 L84.5641842,54.5685425 C87.3243219,54.5685425 89.5685425,52.3299662 89.5685425,49.5685425 C89.5685425,46.8127377 87.328015,44.5685425 84.5641842,44.5685425 L54.5685425,44.5685425 Z" transform="translate(49.568542, 49.568542) rotate(45.000000) translate(-49.568542, -49.568542) "/>
        </g>
    </g>
</svg>