<svg xmlns="http://www.w3.org/2000/svg" xmlns:xlink="http://www.w3.org/1999/xlink" xml:space="preserve" version="1.1" style="shape-rendering:geometricPrecision;text-rendering:geometricPrecision;image-rendering:optimizeQuality;" viewBox="0 0 1.726 2.1574999999999998" x="0px" y="0px" fill-rule="evenodd" clip-rule="evenodd"><defs><style type="text/css">
   
    .fil0 {fill:black}
   
  </style></defs><g><path class="fil0" d="M0 0l1.726 0 0 1.726 -1.726 0 0 -1.726zm0.514 0.247c0,-0.034 0.027,-0.062 0.061,-0.062 0.034,0 0.062,0.028 0.062,0.062l0 0.328c0,0.012 -0.003,0.022 -0.008,0.032l-0.001 0 0 0.001 0 0 -0.001 0.001 0 0 0 0.001 -0.001 0.001 0 0 -0.001 0.001 0 0c-0.004,0.005 -0.008,0.009 -0.013,0.013l0 0 -0.001 0.001 0 0 -0.001 0.001 -0.001 0 0 0 -0.001 0.001 0 0 -0.001 0 0 0.001c-0.01,0.005 -0.02,0.008 -0.032,0.008l-0.328 0c-0.034,0 -0.062,-0.028 -0.062,-0.062 0,-0.034 0.028,-0.061 0.062,-0.061l0.18 0 -0.224 -0.224c-0.024,-0.024 -0.024,-0.063 0,-0.087 0.024,-0.024 0.063,-0.024 0.087,0l0.224 0.224 0 -0.18zm0.786 0.966l0.223 0.223c0.024,0.024 0.024,0.063 0,0.087 -0.024,0.024 -0.063,0.024 -0.087,0l-0.223 -0.223 0 0.18c0,0.034 -0.028,0.061 -0.062,0.061 -0.034,0 -0.062,-0.027 -0.062,-0.061l0 -0.329c0,-0.012 0.003,-0.022 0.009,-0.031l0 -0.001 0 -0.001 0.001 0 0 0 0 -0.001 0.001 -0.001 0 0 0.001 -0.001 0 -0.001 0 0c0.004,-0.005 0.008,-0.009 0.013,-0.013l0 0 0.001 0 0.001 -0.001 0 0 0.001 -0.001 0.001 0 0 0 0 -0.001 0.001 0 0.001 0c0.009,-0.006 0.019,-0.009 0.031,-0.009l0.329 0c0.034,0 0.061,0.028 0.061,0.062 0,0.034 -0.027,0.062 -0.061,0.062l-0.18 0zm-0.786 0.087l-0.224 0.223c-0.024,0.024 -0.063,0.024 -0.087,0 -0.024,-0.024 -0.024,-0.063 0,-0.087l0.224 -0.223 -0.18 0c-0.034,0 -0.062,-0.028 -0.062,-0.062 0,-0.034 0.028,-0.062 0.062,-0.062l0.328 0c0.012,0 0.022,0.003 0.032,0.009l0 0 0.001 0 0 0.001 0.001 0 0 0 0.001 0.001 0.001 0 0 0.001 0.001 0 0 0c0.005,0.004 0.009,0.008 0.013,0.013l0 0 0.001 0.001 0 0.001 0.001 0 0 0.001 0 0.001 0.001 0 0 0 0 0.001 0.001 0.001c0.005,0.009 0.008,0.019 0.008,0.031l0 0.329c0,0.034 -0.028,0.061 -0.062,0.061 -0.034,0 -0.061,-0.027 -0.061,-0.061l0 -0.18zm0.699 -0.873l0.223 -0.224c0.024,-0.024 0.063,-0.024 0.087,0 0.024,0.024 0.024,0.063 0,0.087l-0.223 0.224 0.18 0c0.034,0 0.061,0.027 0.061,0.061 0,0.034 -0.027,0.062 -0.061,0.062l-0.329 0c-0.012,0 -0.022,-0.003 -0.031,-0.008l-0.001 -0.001 -0.001 0 0 0 0 -0.001 -0.001 0 -0.001 0 0 -0.001 -0.001 0 -0.001 -0.001 0 0c-0.005,-0.004 -0.009,-0.008 -0.013,-0.013l0 0 0 -0.001 -0.001 0 0 -0.001 -0.001 -0.001 0 0 0 -0.001 -0.001 0 0 -0.001 0 0c-0.006,-0.01 -0.009,-0.02 -0.009,-0.032l0 -0.328c0,-0.034 0.028,-0.062 0.062,-0.062 0.034,0 0.062,0.028 0.062,0.062l0 0.18z"/></g><text x="0" y="16.726" fill="#000000" font-size="5px" font-weight="bold" font-family="'Helvetica Neue', Helvetica, Arial-Unicode, Arial, Sans-serif">Created by Deemak Daksina</text><text x="0" y="21.726" fill="#000000" font-size="5px" font-weight="bold" font-family="'Helvetica Neue', Helvetica, Arial-Unicode, Arial, Sans-serif">from the Noun Project</text></svg>