<svg xmlns="http://www.w3.org/2000/svg" 
  xmlns:xlink="http://www.w3.org/1999/xlink" xml:space="preserve" version="1.1" viewBox="0 0 1.716 1.716" x="0px" y="0px" fill-rule="evenodd" clip-rule="evenodd">
  <g fill="currentColor">
    <path class="fil0" d="M0 0l1.716 0 0 1.716 -1.716 0 0 -1.716zm0.184 1.144c0,-0.034 0.027,-0.061 0.061,-0.061 0.034,0 0.061,0.027 0.061,0.061l0 0.179 0.271 -0.271c0.024,-0.024 0.063,-0.024 0.087,0 0.024,0.024 0.024,0.063 0,0.087l-0.271 0.271 0.179 0c0.034,0 0.061,0.027 0.061,0.061 0,0.034 -0.027,0.061 -0.061,0.061l-0.327 0c-0.034,0 -0.061,-0.027 -0.061,-0.061l0 -0.327zm1.226 -0.751l-0.271 0.271c-0.024,0.024 -0.063,0.024 -0.087,0 -0.024,-0.024 -0.024,-0.063 0,-0.087l0.271 -0.271 -0.179 0c-0.034,0 -0.061,-0.027 -0.061,-0.061 0,-0.034 0.027,-0.061 0.061,-0.061l0.327 0c0.034,0 0.061,0.027 0.061,0.061l0 0.327c0,0.034 -0.027,0.061 -0.061,0.061 -0.034,0 -0.061,-0.027 -0.061,-0.061l0 -0.179zm-1.017 -0.087l0.271 0.271c0.024,0.024 0.024,0.063 0,0.087 -0.024,0.024 -0.063,0.024 -0.087,0l-0.271 -0.271 0 0.179c0,0.034 -0.027,0.061 -0.061,0.061 -0.034,0 -0.061,-0.027 -0.061,-0.061l0 -0.327c0,-0.011 0.003,-0.022 0.008,-0.031l0 0 0.001 -0.001 0 0 0.001 -0.001 0 -0.001 0 0 0.001 -0.001 0 0 0.001 -0.001 0 0c0.003,-0.005 0.008,-0.01 0.013,-0.013l0 0 0.001 -0.001 0 0 0.001 -0.001 0 0 0.001 0 0.001 -0.001 0 0 0.001 -0.001 0 0c0.009,-0.005 0.02,-0.008 0.031,-0.008l0.327 0c0.034,0 0.061,0.027 0.061,0.061 0,0.034 -0.027,0.061 -0.061,0.061l-0.179 0zm0.93 1.104l-0.271 -0.271c-0.024,-0.024 -0.024,-0.063 0,-0.087 0.024,-0.024 0.063,-0.024 0.087,0l0.271 0.271 0 -0.179c0,-0.034 0.027,-0.061 0.061,-0.061 0.034,0 0.061,0.027 0.061,0.061l0 0.327c0,0.034 -0.027,0.061 -0.061,0.061l-0.327 0c-0.034,0 -0.061,-0.027 -0.061,-0.061 0,-0.034 0.027,-0.061 0.061,-0.061l0.179 0z"/>
  </g>
</svg>